<?xml version="1.0" encoding="UTF-8"?>
<svg enable-background="new 0 0 1024 1024" version="1.1" viewBox="0 0 1024 1024" xml:space="preserve" xmlns="http://www.w3.org/2000/svg">
<path d="m575 1025h-574v-1024h1024v1024h-450m-490.01-510.96c0.33287 10.619 0.12019 21.29 1.1267 31.845 1.5018 15.748 3.296 31.512 5.9718 47.097 6.3782 37.148 18.467 72.547 34.77 106.47 9.9614 20.727 21.619 40.491 34.975 59.276 17.507 24.625 36.907 47.467 59.18 67.99 20.379 18.777 42.097 35.642 65.547 50.342 19.514 12.233 39.834 22.979 61.14 31.669 24.927 10.166 50.401 18.95 77.007 23.501 20.783 3.5553 41.704 7.4096 62.692 8.402 28.958 1.3693 58.033 1.1381 86.918-3.4642 22.352-3.5613 44.41-8.0944 66.013-14.828 31.995-9.9726 62.416-23.403 91.29-40.504 28.883-17.106 55.388-37.324 79.39-60.641 12.803-12.437 24.394-26.177 35.989-39.792 18.716-21.975 33.895-46.387 47.15-71.95 16.339-31.51 28.279-64.67 36.338-99.269 5.4429-23.368 9.4153-47.029 10.241-70.908 1.0077-29.153 1.0298-58.366-3.5304-87.43-3.4586-22.043-7.8301-43.833-14.439-65.098-10.035-32.289-23.504-63.086-40.829-92.23-17.411-29.288-37.925-56.179-61.669-80.479-12.128-12.412-25.497-23.658-38.732-34.93-21.977-18.716-46.383-33.891-71.931-47.178-32.24-16.768-66.079-29.57-101.71-36.712-22.588-4.528-45.521-8.5424-68.463-9.7932-29.097-1.5864-58.352-1.2099-87.417 3.3704-22.203 3.4988-44.142 7.9064-65.572 14.569-32.298 10.042-63.062 23.563-92.206 40.884-28.712 17.065-55.109 37.148-79.004 60.33-12.93 12.544-24.645 26.4-36.338 40.149-18.698 21.987-33.867 46.409-47.125 71.969-16.653 32.105-29.137 65.847-36.6 101.24-3.8706 18.357-6.7571 36.98-8.9252 55.618-1.4721 12.655-0.92402 25.544-1.6684 38.561 0.12981 0.33246 0.25961 0.66492 0.41789 1.92z"/>
<path d="m84.958 511.89c0.35535-12.785-0.1927-25.674 1.2794-38.329 2.1681-18.638 5.0546-37.261 8.9252-55.618 7.4629-35.395 19.947-69.136 36.6-101.24 13.258-25.56 28.427-49.982 47.125-71.969 11.693-13.749 23.408-27.604 36.338-40.149 23.896-23.182 50.292-43.266 79.004-60.33 29.144-17.321 59.908-30.842 92.206-40.884 21.43-6.6629 43.369-11.071 65.572-14.569 29.065-4.5802 58.32-4.9567 87.417-3.3704 22.942 1.2508 45.875 5.2651 68.463 9.7932 35.629 7.1423 69.468 19.944 101.71 36.712 25.547 13.287 49.953 28.462 71.931 47.178 13.235 11.271 26.604 22.518 38.732 34.93 23.744 24.299 44.259 51.19 61.669 80.479 17.326 29.144 30.794 59.941 40.829 92.23 6.6088 21.265 10.98 43.055 14.439 65.098 4.5602 29.064 4.5381 58.277 3.5304 87.43-0.82532 23.879-4.7977 47.539-10.241 70.908-8.0588 34.599-19.999 67.759-36.338 99.269-13.255 25.562-28.434 49.974-47.15 71.95-11.595 13.614-23.186 27.354-35.989 39.792-24.003 23.316-50.507 43.534-79.39 60.641-28.874 17.101-59.295 30.531-91.29 40.504-21.602 6.7333-43.661 11.266-66.013 14.828-28.885 4.6022-57.96 4.8334-86.918 3.4642-20.988-0.99243-41.909-4.8467-62.692-8.402-26.607-4.5514-52.08-13.335-77.007-23.501-21.306-8.6894-41.626-19.436-61.14-31.669-23.45-14.7-45.169-31.565-65.547-50.342-22.273-20.523-41.672-43.365-59.18-67.99-13.356-18.786-25.014-38.549-34.975-59.276-16.303-33.922-28.392-69.32-34.77-106.47-2.6758-15.585-4.47-31.349-5.9718-47.097-1.0065-10.555-0.79386-21.226-1.1402-32.614-0.014114-0.97339-0.014785-1.1782-0.015464-1.383m123.71 284.46c-1.005-0.79675-2.01-1.5934-3.015-2.3902-0.34166 0.40662-0.68333 0.81329-1.025 1.22 1.068 0.93915 2.136 1.8784 3.5404 3.4097 12.644 12.001 25.158 24.145 38.021 35.907 3.3932 3.103 7.6692 6.7012 11.874 7.1884 13.931 1.6145 27.27-1.556 39.772-8.066 7.0308-3.6609 14.022-7.439 21.255-10.661 13.517-6.0223 27.922-6.1908 42.413-6.0264 15.852 0.17981 30.38 4.815 43.671 12.934 20.691 12.639 42.88 14.596 66.037 10.461 11.058-1.9749 20.4-8.2443 30.395-12.979 31.405-14.878 63.061-14.93 93.867 1.6401 16.137 8.6796 32.696 13.707 51.143 13.133 15.833-0.49213 30.162-5.2325 43.688-12.982 11.794-6.7571 24.538-10.913 37.939-11.972 19.38-1.5314 38.367 0.59369 56.006 9.8253 1.0788 0.5647 3.2218 0.70728 3.9719 0.038818 7.1365-6.3596 14.079-12.937 20.992-19.372-12.488-5.9053-24.09-11.715-35.955-16.924-16.534-7.2585-33.812-8.529-51.48-5.1302-12.178 2.3427-22.801 8.3314-33.838 13.645-16.517 7.9512-34.017 11.681-52.774 9.9914-15.702-1.4146-30.13-5.9093-43.605-13.565-11.266-6.4003-23.299-10.26-35.984-11.519-20.251-2.0096-39.045 3.1957-56.556 13.386-20.313 11.821-42.218 14.384-65.098 10.922-13.768-2.0828-25.725-8.5294-38.017-14.745-30.065-15.203-59.899-13.235-88.906 3.8148-20.258 11.907-42.205 14.374-65.091 10.934-11.717-1.7614-22.514-6.1388-33.241-12.117m667.57-80.388c-0.49457 0.064331-1.0381 0.016724-1.4767 0.20898-21.46 9.4062-43.743 10.679-65.996 4.5184-11.181-3.0954-21.626-8.9774-32.252-13.926-18.321-8.5317-37.437-10.747-56.854-5.8248-9.7812 2.4797-19.238 6.8712-28.285 11.49-20.975 10.708-43.04 14.288-65.99 10.231-9.762-1.7258-19.695-4.9515-28.407-9.6254-17.377-9.3215-35.015-15.564-55.115-14.177-14.866 1.0255-28.464 5.1119-41.209 12.706-4.3796 2.6098-9.1854 4.5433-13.897 6.5493-13.931 5.9309-28.633 6.3824-43.455 5.8943-14.685-0.48352-28.402-4.5015-40.852-12.156-14.771-9.0812-30.827-13.709-47.936-13.667-13.085 0.031494-25.925 2.6271-37.754 8.8715-7.1599 3.7797-14.269 7.7216-21.686 10.935-13.527 5.8611-27.904 6.3968-42.426 6.0896-10.413-0.22034-20.423-2.1692-29.864-6.274-7.8483-3.4121-15.171-8.0125-22.922-11.675-10.726-5.0687-22.275-7.5889-34.007-7.8859-8.5299-0.21606-17.108 1.4691-26.558 2.394 5.4258 9.6811 9.8912 17.962 14.72 26.026 1.0953 1.8291 3.2989 3.8243 5.2558 4.1472 5.1988 0.85803 10.543 0.82654 15.827 1.1815 13.457 0.90399 25.892 5.1591 37.372 12.04 23.026 13.801 47.448 17.009 72.94 9.0322 8.5453-2.6739 16.378-7.6251 24.538-11.531 17.69-8.4686 36.078-11.94 55.812-9.7777 14.628 1.6032 28.019 5.848 40.548 13.323 10.794 6.4399 22.47 10.767 34.949 11.76 19.345 1.5383 37.93-1.3435 54.879-11.779 4.6219-2.8456 9.66-5.1777 14.762-7.05 14.885-5.4623 30.08-7.999 46.147-6.2143 13.72 1.5242 26.769 4.9167 38.556 11.689 28.877 16.59 58.028 18.372 88.045 3.642 6.3875-3.1344 12.645-6.6721 19.302-9.0912 14.867-5.4032 30.062-8.0952 46.151-6.2458 13.71 1.576 26.774 4.9263 38.53 11.75 17.023 9.8818 35.053 14.671 54.545 13.233 4.2261-0.31171 9.7451 1.0317 12.756-3.73 7.7562-12.266 15.322-24.654 23.011-37.213-0.31329 0.001282-0.62659 0.002563-1.7023 0.13238m25.008-55.001c-1.3905 0.49805-2.8436 0.86865-4.1613 1.515-7.8398 3.8459-15.464 8.1954-23.504 11.557-19.588 8.1896-39.779 9.4921-60.638 5.2249-14.416-2.949-26.442-11.007-39.636-16.544-16.616-6.9736-33.823-8.576-51.508-5.127-12.174 2.3741-22.82 8.3007-33.842 13.663-16.51 8.0317-34.025 11.653-52.775 9.9878-15.711-1.3957-30.139-5.9047-43.618-13.562-11.269-6.4016-23.304-10.281-35.993-11.517-20.248-1.9723-39.051 3.2352-56.576 13.403-20.325 11.792-42.224 14.379-65.118 10.888-13.776-2.1007-25.722-8.5665-38.021-14.765-30.087-15.162-59.902-13.164-88.927 3.8894-20.248 11.896-42.215 14.392-65.11 10.849-13.422-2.0773-25.46-7.5195-37.102-14.396-16.327-9.6436-34.512-11.681-52.887-9.7107-9.4652 1.0152-18.638 4.7545-29.002 7.5482 4.3153 9.642 7.9387 17.924 11.803 26.093 0.40212 0.85016 2.2647 1.5139 3.3935 1.4372 10.211-0.6936 20.397-1.9517 30.616-2.3088 16.376-0.5722 31.288 4.7073 45.053 13.152 18.905 11.598 39.431 13.646 60.809 10.984 11.527-1.4354 21.735-6.4171 31.677-12.209 16.982-9.8927 35.474-12.811 54.972-12.163 16.018 0.53216 30.715 4.8608 44.143 13.111 20.537 12.619 42.765 14.948 65.557 10.234 10.097-2.0885 19.587-7.6172 29.034-12.235 16.895-8.2585 34.53-11.985 53.332-11.033 15.68 0.79334 30.284 5.015 43.81 12.741 22.9 13.082 47.009 16.371 72.135 8.5325 9.05-2.8234 17.399-7.8704 26.108-11.814 15.156-6.863 30.93-10.002 47.702-9.5508 17.19 0.46246 32.974 5.1686 47.595 13.621 10.526 6.0854 21.752 10.008 33.533 11.303 20.056 2.2046 39.307-1.418 56.91-11.83 2.7888-1.6497 6.4076-3.3012 7.6575-5.9048 5.4946-11.445 10.261-23.24 15.072-35.183-0.57965-0.002808-1.1593-0.005615-2.4927 0.11963m-100.87-118.84c7.303 2.5007 14.435 5.8914 21.941 7.333 21.335 4.0974 41.584 0.81116 60.857-9.7763 8.8768-4.8764 18.579-8.4327 28.212-11.683 6.1239-2.0665 12.809-2.4709 19.177-3.6092 5.6597-129.3-58.853-296.76-228.7-384.15-79.819-41.072-165-54.049-253.82-40.138-81.798 12.811-153.68 47.304-215.02 102.71-57.089 51.571-97.299 114.43-119.86 188.17-15.538 50.775-21.208 102.69-16.688 157.21 6.6255-3.0271 12.39-5.6522 18.148-8.2937 7.9218-3.6344 15.607-7.9531 23.807-10.774 14.324-4.927 29.189-5.0931 44.166-3.1899 11.818 1.5018 22.979 5.0072 32.974 11.294 13.068 8.2194 27.226 12.754 42.423 13.656 16.665 0.98932 32.68-2.2582 47.286-10.629 12.589-7.2151 25.519-13.064 40.188-14.581 15.84-1.6374 31.557-1.3163 46.47 4.5017 10.715 4.1801 20.717 10.147 31.265 14.803 10.527 4.6473 21.765 5.9956 34.12 5.9478-3.2795-6.271-6.4533-11.651-8.9513-17.328-2.1126-4.8013-4.8444-7.6254-10.47-6.6597-1.569 0.26935-3.2819-0.21783-4.9184-0.43579-11.489-1.5306-21.876-6.1277-31.992-11.494-10.245-5.4348-20.613-10.505-32.309-12.183-1.2488-0.17911-2.6295-1.8569-3.315-3.1703-6.8606-13.144-10.381-26.844-8.5149-41.942 2.3379-18.912 9.9939-34.565 24.723-46.902 16.384-13.723 35.431-18.809 55.931-15.474 29.428 4.7875 48.803 22.338 57.103 51.143 5.2363 18.172 2.8326 35.808-6.9585 52.018-3.9846 6.5969-9.25 12.42-14.486 19.325 5.2085 7.3504 10.807 15.474 16.754 23.334 0.67102 0.88696 3.5816 0.90186 4.9835 0.27301 6.4958-2.9139 12.599-6.8315 19.262-9.2188 14.368-5.1475 29.087-8.0479 44.633-6.3892 10.117 1.0794 19.979 2.6166 29.263 6.757 7.9835 3.5605 15.648 7.8514 23.685 11.274 19.709 8.392 40.066 10.112 60.494 3.3511 9.7681-3.233 18.984-8.1675 28.379-12.487 18.674-8.587 38.052-10.854 58.399-7.9898 14.795 2.0829 27.727 8.4273 41.358 15.4m-67.465 61.033c5.2827 0.27667 10.563 0.60651 15.849 0.8194 13.482 0.54321 26.024 4.6514 37.715 10.971 11.877 6.4207 23.935 11.567 37.519 13.32 19.62 2.5318 37.8-1.2515 54.94-10.674 12.262-6.741 24.91-12.164 39.002-13.738 1.4368-0.16064 3.561-1.9977 3.8467-3.3726 1.972-9.4892 3.5403-19.062 5.2033-28.412-0.64435-0.46484-0.88672-0.77301-1.1725-0.82056-0.81757-0.13599-1.6526-0.22833-2.4809-0.22876-13.331-0.00647-25.365 4.6691-36.579 11.187-24.128 14.023-49.782 17.799-76.462 10.665-11.826-3.1624-22.879-9.3067-34.174-14.343-16.407-7.3157-33.378-9.5018-51.123-6.7126-12.103 1.9025-23.044 6.5099-33.708 12.396-20.619 11.38-42.929 14.508-65.881 10.45-9.7631-1.726-19.704-4.9384-28.411-9.6198-17.374-9.3415-35.059-15.459-55.116-14.172-14.874 0.95496-28.467 5.0961-41.213 12.688-4.3806 2.6091-9.185 4.5458-13.897 6.5518-13.932 5.9307-28.634 6.3831-43.457 5.8963-14.686-0.48242-28.337-4.6039-40.872-12.127-14.816-8.8925-30.804-13.885-47.998-13.72-13.098 0.1261-25.92 2.7048-37.752 8.9211-7.1673 3.7654-14.279 7.6957-21.688 10.929-14.017 6.1169-28.937 6.5216-43.93 5.9937-14.508-0.51093-28.092-4.4778-40.416-11.984-18.973-11.555-39.358-15.685-61.234-12.905-17.515 2.2264-31.743 12.38-47.299 19.702 2.0506 9.1469 4.0556 18.09 6.2711 27.973 3.9296-2.1674 6.9653-4.0656 10.182-5.5787 17.579-8.2693 35.856-11.669 55.393-9.4233 14.244 1.6373 27.295 5.7311 39.639 12.953 23.443 13.716 48.362 16.265 74.059 7.7257 7.7348-2.5701 14.761-7.2421 22.166-10.841 17.649-8.5776 36.052-11.972 55.786-9.893 14.828 1.5621 28.35 5.9968 40.987 13.55 10.811 6.4612 22.515 10.539 34.944 11.563 19.366 1.5958 37.905-1.5476 54.864-11.881 4.6345-2.8235 9.6751-5.131 14.773-7.0143 14.723-5.4386 29.767-7.8928 45.655-6.1467 14.061 1.5454 27.296 5.2146 39.445 12.136 26.979 15.37 54.781 18.033 83.131 5.1019 17.002-7.7549 33.388-16.756 53.493-17.887m-542.76 45.987c6.6747 2.8033 13.739 4.937 19.944 8.5477 13.36 7.7745 27.415 13.293 42.838 14.186 18.395 1.0657 35.807-2.6474 51.7-12.601 4.7352-2.9655 9.9774-5.249 15.21-7.269 16.268-6.2806 33.225-8.0197 50.259-4.8317 10.268 1.9216 20.879 4.5098 30.032 9.2936 13.001 6.7952 25.712 13.037 40.566 14.782 19.666 2.3107 37.782-1.4783 54.796-11.262 14.573-8.3801 30.161-13.244 47.006-13.998 19.533-0.87518 37.743 3.7792 54.788 13.131 17.542 9.625 35.911 14.744 56.152 11.963 12.109-1.6638 23.508-5.1124 34.108-11.144 21.804-12.407 44.943-16.623 69.79-12.4 13.15 2.2354 24.812 7.8546 36.428 13.833 15.958 8.2132 32.625 12.005 50.719 9.7769 12.685-1.5623 24.438-5.3902 35.682-11.213 5.1281-2.6558 10.073-6.5971 15.515-7.5228 11.588-1.9715 15.677-9.4955 17.916-19.513 1.3789-6.1686 3.2377-12.23 5.1243-19.244-11.108 1.9357-20.814 4.62-29.449 9.8527-14.419 8.7371-29.903 14.17-46.608 15.339-19.357 1.3548-38.088-2.097-55.06-11.744-18.847-10.712-38.622-16.778-60.22-12.883-10.266 1.8513-20.857 4.6425-29.973 9.4993-14.839 7.9056-30.012 13.956-46.718 15.127-19.357 1.3574-38.061-2.1362-55.072-11.716-18.849-10.616-38.521-16.241-60.26-13.15-11.407 1.6219-22.412 4.7745-32.242 10.666-13.163 7.89-27.174 12.992-42.347 14.208-21.096 1.6919-41.301-1.9021-59.723-12.897-10.79-6.4399-22.188-10.546-34.746-12.193-19.461-2.5532-37.645 0.96454-54.531 10.457-12.392 6.966-25.031 12.271-39.335 13.992-22.828 2.7474-44.28-0.8064-63.99-12.625-11.901-7.1364-24.613-11.398-38.242-12.469-20.26-1.5917-39.062 3.4427-56.166 14.471-0.99789 0.64337-2.1414 2.5296-1.8722 3.4395 2.3684 8.0054 5.0421 15.921 7.7313 24.188 22.905-10.378 45.881-11.837 70.251-6.08m462.79 117.39c-7.595-0.17377-15.225 0.048584-22.777-0.61029-12.651-1.1037-24.367-5.4514-35.712-11.096-7.7911-3.8766-15.682-7.8859-23.968-10.372-23.183-6.955-45.626-3.3965-66.644 7.7988-12.526 6.6724-25.042 12.261-39.347 13.949-21.716 2.5631-42.26-0.35773-61.333-11.231-11.6-6.6125-23.544-11.544-36.994-13.235-19.647-2.4708-37.923 1.1535-54.939 10.797-12.072 6.8419-24.478 11.898-38.413 13.638-22.631 2.8264-43.675-1.0453-63.681-12.008-7.4724-4.0949-15.433-7.5814-23.553-10.125-6.8402-2.1429-14.234-2.5189-22.65-3.8821 1.2518 2.6329 1.5393 3.5794 2.0874 4.3376 5.4132 7.4872 10.719 15.06 16.375 22.361 2.983 3.851 5.9912 8.2855 10.049 10.578 8.9933 5.0795 18.659 8.9677 28.046 13.351 16.074 7.5054 32.736 10.836 50.564 8.3638 12.139-1.6835 23.397-5.1981 33.942-11.498 22.312-13.331 46.398-16.608 71.74-11.806 12.326 2.3356 23.242 7.892 34.192 13.901 16.003 8.782 33.355 11.883 51.748 9.4362 12.679-1.6866 24.256-5.6226 35.309-12.042 14.516-8.4304 30.349-12.73 47.235-13.177 19.184-0.50775 36.956 4.2388 53.675 13.46 17.203 9.4882 35.315 14.316 55.217 11.703 11.984-1.5735 23.402-4.7597 33.73-10.754 13.698-7.9496 28.26-13.07 43.893-14.2 18.754-1.3563 36.802 1.8147 53.863 10.513 9.6616 4.9255 19.961 8.6392 30.125 12.499 1.5994 0.60736 4.6894-0.26172 5.9212-1.5585 5.3466-5.6282 10.304-11.631 15.313-17.573 2.7701-3.286 5.3635-6.7212 8.7991-11.05-4.6125 0-7.7561 0.050049-10.898-0.008423-16.289-0.30286-31.946-3.6833-46.09-11.784-18.963-10.861-38.825-16.464-60.715-13.184-10.84 1.6246-21.199 4.7425-30.819 10.172-13.212 7.4567-27.018 13.204-43.293 14.337m-8.3994-205.53c-5.5851-0.53217-11.208-0.81439-16.748-1.6454-14.168-2.1251-26.5-9.0634-38.993-15.459-11.273-5.7713-23.458-8.3091-35.807-8.6716-13.946-0.4093-27.604 2.3788-40.236 8.8596-5.7342 2.9419-11.363 6.1025-17.182 8.8634-15.198 7.2109-31.37 8.8567-47.948 8.0646-14.79-0.70666-28.717-4.5996-41.317-12.275-23.917-14.569-49.202-17.792-75.556-8.8665-10.373 3.5129-19.779 9.7772-29.923 14.088-21.349 9.0718-43.505 9.7844-65.533 3.4138-9.5155-2.752-18.332-8.0216-27.34-12.405-16.125-7.8471-32.832-11.328-50.885-9.1819-11.036 1.3117-21.254 4.4121-31.123 9.2292-8.2762 4.0394-16.524 8.1658-24.993 11.763-2.5846 1.0977-3.2899 2.2404-2.9737 4.681 0.761 5.874 1.4725 11.754 2.3561 18.855 5.3442-2.8515 10.11-5.3325 14.819-7.9178 16.581-9.1042 34.335-12.085 53.145-11.554 16.538 0.46765 31.581 4.951 45.517 13.48 18.893 11.562 39.426 13.59 60.809 10.854 12.053-1.5426 22.582-6.9639 32.992-12.916 16.602-9.4937 34.71-12.081 53.653-11.375 15.961 0.59534 30.673 4.8506 44.128 13.132 20.504 12.62 42.754 14.945 65.546 10.139 10.096-2.1288 19.592-7.604 29.033-12.229 16.893-8.2765 34.536-11.969 53.328-10.989 15.675 0.81805 30.275 5.0899 43.806 12.808 22.745 12.974 46.728 16.19 71.688 8.6222 9.0621-2.7474 17.428-7.7932 26.108-11.797 15.282-7.0496 31.243-10.141 48.15-9.7016 17.167 0.44635 32.951 5.1961 47.61 13.597 20.08 11.507 41.365 14.143 63.701 9.7722 10.447-2.0442 19.967-6.5749 29.224-11.916 12.332-7.1151 25.848-10.691 40.128-11.44 1.7274-0.090576 4.704-1.6004 4.8393-2.7247 0.90271-7.4992 1.1906-15.072 1.7051-23.041-2.7153 0.38116-4.4675 0.74402-6.2355 0.8562-10.93 0.69348-21.135 4.1736-30.503 9.4279-12.96 7.2695-26.228 12.952-41.153 14.792-16.94 2.0879-33.393 0.6615-49.186-5.6928-8.707-3.503-16.83-8.442-25.495-12.069-15.836-6.6285-32.173-8.8719-49.378-5.7966-12.305 2.1995-23.353 7.0526-34.171 12.804-15.219 8.091-31.363 12.138-49.606 11.564m-40.5 283.53c-2.4033-1.0872-4.936-1.9568-7.1893-3.2963-17.431-10.362-35.869-16.123-56.511-14.37-13.644 1.1591-26.426 4.7482-38.044 11.634-26.494 15.702-54.443 17.558-83.197 8.7767-9.3285-2.8489-17.592-9.0128-26.663-12.917-14.404-6.2-29.33-9.1173-45.3-7.5764-13.868 1.338-26.196 5.8773-38.239 12.505-7.3156 4.0259-15.362 6.8203-23.268 9.6392-4.7102 1.6794-9.7856 2.3348-14.715 3.4548 0.16306 0.61536 0.14227 1.0845 0.34338 1.2172 9.4967 6.2611 18.921 12.643 28.621 18.573 1.5247 0.93219 4.3939 0.10663 6.4861-0.46985 1.687-0.46478 3.071-1.9257 4.7067-2.6958 17.767-8.3651 36.284-11.572 55.931-9.1641 13.862 1.6989 26.661 5.7426 38.637 12.927 11.026 6.6149 23.005 11.127 35.869 12.105 19.372 1.473 37.911-1.5541 54.87-11.898 4.6331-2.826 9.6736-5.1356 14.772-7.0184 14.723-5.4365 29.767-7.9413 45.653-6.1394 14.533 1.6485 28.018 5.6207 40.682 12.877 12.347 7.0745 25.693 11.356 39.921 12.248 17.437 1.0928 33.951-2.6356 49.159-11.247 18.013-10.199 37.256-15.084 57.92-14.794 1.9794 0.027771 4.2312-0.85504 5.9177-1.9755 4.8046-3.1922 9.4428-6.6465 14.032-10.148 4.3848-3.3455 8.6254-6.8796 12.946-10.344-0.93567-1.1813-1.1644-1.7026-1.5607-1.9245-1.0041-0.56238-2.0625-1.0441-3.136-1.4639-12.742-4.9832-25.809-7.1356-39.602-6.2032-13.682 0.92493-26.403 4.6111-38.153 11.282-29.083 16.511-59.102 18.351-90.887 6.4052m-4.6735 71.591c3.8331 1.1455 8.0721 3.9837 11.437 3.1766 36.454-8.7446 71.192-22.121 104.03-40.28 4.532-2.506 8.9276-5.2587 14.25-8.4081-1.7061-0.33594-2.3726-0.69165-2.8784-0.53351-9.4042 2.9404-19.591 4.5053-28.021 9.2124-21.343 11.918-43.434 18.1-67.931 14.779-12.583-1.7059-24.677-4.9721-35.612-11.353-11.747-6.8555-24.092-11.072-37.6-12.89-18.829-2.5338-36.495 1.2254-52.552 10.294-18.442 10.415-37.597 15.832-58.715 14.931-15.682-0.66956-30.402-4.6567-43.773-12.725-20.677-12.478-42.703-16.405-66.167-11.179-7.6585 1.7059-14.985 4.9037-22.463 7.4191 0.054565 0.70032 0.10913 1.4006 0.16373 2.1009 10.689 5.1189 21.298 10.414 32.1 15.282 5.3708 2.4203 10.966 5.1592 16.685 5.83 14.265 1.6732 27.899 4.7557 40.424 12.065 3.5219 2.0552 7.2291 4.1824 11.129 5.1235 10.076 2.4313 20.371 3.9491 30.464 6.3224 18.528 4.3572 35.337 0.017029 51.261-9.3897 13.758-8.1274 28.653-12.799 44.524-13.816 20.829-1.3347 40.427 3.2236 59.24 14.04m-189.33-415.59c18.954 10.954 43.936 0.99268 53.537-19.529 9.1791-19.62-0.9772-44.122-20.928-53.248-18.885-8.6382-41.386-0.62845-51.266 19.578-9.4764 19.381-1.3416 43.369 18.658 53.198m137.12 429.42c7.8417-0.98438 15.695-1.8836 23.521-2.9796 6.4999-0.91028 12.967-2.0521 20.43-3.2486-26.958-17.903-79.817-13.888-98.104 6.2622 17.521 0 35.367 0 54.153-0.034058z" fill="#009"/>
<path d="m84.763 512c0.19518 0.088928 0.19585 0.29376 0.19572 0.80585-0.13062-0.025146-0.26042-0.3576-0.19572-0.80585z" fill="#009"/>
<path d="m800.02 542c-13.273-6.8562-26.204-13.201-41-15.284-20.348-2.8646-39.726-0.59723-58.399 7.9898-9.3945 4.32-18.611 9.2545-28.379 12.487-20.428 6.761-40.785 5.0409-60.494-3.3511-8.0376-3.4223-15.702-7.7132-23.685-11.274-9.2836-4.1403-19.146-5.6776-29.263-6.757-15.545-1.6586-30.265 1.2417-44.633 6.3892-6.6631 2.3872-12.766 6.3049-19.262 9.2188-1.4019 0.62884-4.3124 0.61395-4.9835-0.27301-5.9466-7.8602-11.545-15.984-16.754-23.334 5.2359-6.9048 10.501-12.728 14.486-19.325 9.7911-16.21 12.195-33.846 6.9585-52.018-8.3004-28.805-27.675-46.356-57.103-51.143-20.5-3.3351-39.547 1.7507-55.931 15.474-14.729 12.337-22.386 27.991-24.723 46.902-1.8665 15.099 1.6543 28.798 8.5149 41.942 0.68555 1.3134 2.0662 2.9912 3.315 3.1703 11.697 1.6777 22.064 6.748 32.309 12.183 10.116 5.3665 20.503 9.9636 31.992 11.494 1.6365 0.21796 3.3494 0.70514 4.9184 0.43579 5.6254-0.96564 8.3572 1.8585 10.47 6.6597 2.498 5.6771 5.6718 11.057 8.9513 17.328-12.356 0.047852-23.593-1.3005-34.12-5.9478-10.547-4.6561-20.55-10.623-31.265-14.803-14.913-5.8181-30.63-6.1391-46.47-4.5017-14.669 1.5164-27.599 7.3654-40.188 14.581-14.606 8.3709-30.621 11.618-47.286 10.629-15.197-0.90228-29.355-5.4364-42.423-13.656-9.9945-6.2865-21.155-9.7919-32.974-11.294-14.978-1.9032-29.842-1.7371-44.166 3.1899-8.2008 2.8209-15.886 7.1396-23.807 10.774-5.7574 2.6415-11.522 5.2666-18.148 8.2937-4.52-54.519 1.1505-106.44 16.688-157.21 22.565-73.738 62.775-136.6 119.86-188.17 61.337-55.408 133.22-89.901 215.02-102.71 88.822-13.911 174-0.93397 253.82 40.138 169.84 87.394 234.35 254.86 228.7 384.15-6.3688 1.1382-13.053 1.5427-19.177 3.6092-9.6331 3.2507-19.335 6.8071-28.212 11.683-19.273 10.587-39.522 13.874-60.857 9.7763-7.5063-1.4417-14.638-4.8323-22.3-7.4498m-89.016-131.4v93.787c10.757-1.0937 20.555-2.0898 31.175-3.1695v-80.22c5.8105 0 10.799-0.084808 15.784 0.016357 13.477 0.2735 24.67 5.1259 32.871 16.234 16.507 22.359 7.661 56.93-22.459 64.468-2.5656 0.64209-5.2556 0.78705-6.8542 1.0154 11.556 5.1636 23.538 10.598 35.618 15.805 1.366 0.58881 3.7386 0.52094 4.8804-0.30231 15.62-11.262 25.996-26.097 27.823-45.537 2.2275-23.708-4.4426-44.447-23.058-60.442-11.966-10.281-25.682-16.074-41.545-16.23-13.491-0.13269-26.984-0.030182-40.476-0.026459-11.297 0.003082-13.751 2.439-13.759 14.602m-416.18 110.18c0.055878-5.3256 0.25952-10.655 0.12393-15.976-0.12311-4.8297-2.2926-6.7767-7.1737-6.7892-13.489-0.034576-26.978-0.002899-40.466-0.027038-1.9345-0.003449-3.8687-0.17099-6.3013-0.28619 0-2.6221 1.5e-5 -4.7544 0-6.8868-1.83e-4 -28.976 0.003082-57.952-0.002975-86.928-0.001496-7.1472-0.73102-7.8527-8.1014-7.8821-4.4962-0.017974-8.9928-0.032287-13.489 0.004914-6.2876 0.052002-8.3519 1.9244-8.3652 8.3613-0.072525 34.971-0.056106 69.942 0.043717 104.91 0.003906 1.3704 0.7852 3.3452 1.8486 4.0143 14.553 9.1558 30.492 14.013 47.669 14.687 11.759 0.46106 22.949-2.2523 34.215-7.2049m389.18-107.26c-0.3103-4.6065-0.70068-9.2095-0.90338-13.821-0.13934-3.1712-1.9813-3.7571-4.6646-3.7168-5.6567 0.085144-11.316 0.016693-16.974 0.020141-7.8676 0.004792-8.4524 0.57587-8.454 8.5202-0.007934 38.775-0.007507 77.549 0.008057 116.32 7.32e-4 1.9277 0.1698 3.8553 0.27612 6.116 9.5126 0.2403 17.847-2.0133 25.919-5.5823 3.513-1.5532 4.9344-3.8608 4.9081-8.0167-0.20825-32.949-0.11566-65.9-0.11554-99.844m-61.829 88.089c0.9386-4.1714 2.6576-8.3365 2.6906-12.515 0.23438-29.66 0.10522-59.323 0.15094-88.986 0.004639-3.0169-1.2921-4.1693-4.2233-4.1208-5.4976 0.091156-10.998 0.012237-16.497 0.015411-7.8481 0.004486-9.2827 1.4108-9.2869 9.2475-0.01355 25.33 0.016419 50.659-0.02301 75.989-0.009338 6.0297-1.8325 11.638-6.4465 15.532-4.2443 3.5814-9.2348 6.2782-13.956 9.4038 2.2943 0.8735 4.936 1.7329 7.4551 2.8653 8.1179 3.6492 16.233 7.3098 24.257 11.159 2.8096 1.3477 5.0374 0.80035 6.4875-1.572 3.2441-5.3071 6.1744-10.806 9.391-17.018m-314.17-55.108v64.998c1.1353 0.19672 1.4951 0.37518 1.7759 0.29083 8.8061-2.6443 17.643-5.1995 26.361-8.1093 1.2458-0.41577 2.7219-2.5629 2.7285-3.9154 0.15442-31.633 0.1651-63.267 0.078186-94.901-0.014283-5.2036-4.0423-8.8011-9.2563-8.8551-3.1631-0.032746-6.3267-0.008728-9.4901-0.007782-9.3057 0.002777-12.182 2.9461-12.193 12.538-0.014312 12.321-0.003784 24.641-0.003967 37.962m235-26c-0.002441-6.3242-0.07666-12.649 0.019104-18.972 0.05896-3.8884-1.324-5.7899-5.5557-5.5906-5.6459 0.26593-11.314 0.05426-16.972 0.065674-6.7225 0.01355-8.472 1.7227-8.4792 8.5287-0.026093 24.298-0.40329 48.606 0.21167 72.889 0.20435 8.0684 2.9248 16.087 4.645 24.096 0.61475 2.8624 2.5127 3.7199 5.5535 3.3304 8.8135-1.1288 17.669-1.9353 26.511-2.8351 1.6813-0.17105 3.3782-0.19018 6.3869-0.34906-10.535-7.6544-12.724-17.214-12.438-28.241 0.44763-17.297 0.11884-34.613 0.11884-52.922z"/>
<path d="m732.48 603.31c-19.672 0.97015-36.058 9.9716-53.06 17.727-28.349 12.931-56.152 10.268-83.131-5.1019-12.15-6.9218-25.384-10.591-39.445-12.136-15.888-1.7461-30.932 0.70813-45.655 6.1467-5.0984 1.8833-10.139 4.1907-14.773 7.0143-16.96 10.333-35.499 13.476-54.864 11.881-12.429-1.0241-24.133-5.1016-34.944-11.563-12.637-7.5527-26.159-11.987-40.987-13.55-19.734-2.0788-38.136 1.3154-55.786 9.893-7.4047 3.5988-14.431 8.2708-22.166 10.841-25.698 8.5389-50.616 5.9902-74.059-7.7257-12.344-7.2222-25.395-11.316-39.639-12.953-19.537-2.2458-37.815 1.1541-55.393 9.4233-3.2167 1.5132-6.2524 3.4113-10.182 5.5787-2.2155-9.8825-4.2205-18.826-6.2711-27.973 15.557-7.3217 29.784-17.476 47.299-19.702 21.876-2.7807 42.261 1.35 61.234 12.905 12.325 7.5058 25.908 11.473 40.416 11.984 14.993 0.52795 29.912 0.12329 43.93-5.9937 7.4089-3.2331 14.521-7.1634 21.688-10.929 11.833-6.2164 24.654-8.795 37.752-8.9211 17.194-0.16559 33.182 4.8272 47.998 13.72 12.534 7.5231 26.185 11.645 40.872 12.127 14.823 0.48682 29.525 0.034424 43.457-5.8963 4.7121-2.006 9.5165-3.9426 13.897-6.5518 12.746-7.5919 26.339-11.733 41.213-12.688 20.057-1.2877 37.742 4.8301 55.116 14.172 8.707 4.6814 18.648 7.8938 28.411 9.6198 22.952 4.0573 45.262 0.92987 65.881-10.45 10.665-5.8862 21.605-10.494 33.708-12.396 17.745-2.7892 34.716-0.60303 51.123 6.7126 11.295 5.036 22.348 11.18 34.174 14.343 26.68 7.1345 52.334 3.3588 76.462-10.665 11.214-6.5177 23.248-11.193 36.579-11.187 0.82825 4.27e-4 1.6633 0.092773 2.4809 0.22876 0.28577 0.047546 0.52814 0.35571 1.1725 0.82056-1.663 9.3494-3.2313 18.923-5.2033 28.412-0.2857 1.3749-2.4099 3.2119-3.8467 3.3726-14.091 1.5745-26.74 6.9974-39.002 13.738-17.14 9.4226-35.32 13.206-54.94 10.674-13.585-1.7531-25.642-6.8994-37.519-13.32-11.691-6.3197-24.233-10.428-37.715-10.971-5.2853-0.21289-10.566-0.54272-16.283-0.65918z"/>
<path d="m189.75 649.09c-23.963-5.7012-46.939-4.2416-69.844 6.1362-2.6892-8.2673-5.3629-16.182-7.7313-24.188-0.26919-0.90991 0.87429-2.7961 1.8722-3.4395 17.104-11.028 35.907-16.063 56.166-14.471 13.63 1.0707 26.341 5.3322 38.242 12.469 19.71 11.819 41.162 15.373 63.99 12.625 14.304-1.7214 26.943-7.0262 39.335-13.992 16.886-9.492 35.071-13.01 54.531-10.457 12.558 1.6475 23.956 5.7531 34.746 12.193 18.421 10.995 38.626 14.589 59.723 12.897 15.173-1.2169 29.184-6.3185 42.347-14.208 9.8294-5.8919 20.835-9.0444 32.242-10.666 21.739-3.0912 41.411 2.5341 60.26 13.15 17.011 9.5803 35.715 13.074 55.072 11.716 16.706-1.1716 31.879-7.2216 46.718-15.127 9.1163-4.8568 19.707-7.6479 29.973-9.4993 21.597-3.895 41.373 2.1706 60.22 12.883 16.973 9.6468 35.704 13.099 55.06 11.744 16.705-1.1692 32.19-6.6023 46.608-15.339 8.6351-5.2327 18.342-7.917 29.449-9.8527-1.8866 7.0138-3.7454 13.075-5.1243 19.244-2.2393 10.017-6.328 17.541-17.916 19.513-5.4417 0.92572-10.387 4.8671-15.515 7.5228-11.243 5.8228-22.997 9.6506-35.682 11.213-18.094 2.2285-34.761-1.5637-50.719-9.7769-11.616-5.9787-23.278-11.598-36.428-13.833-24.847-4.2237-47.986-0.007324-69.79 12.4-10.6 6.0316-21.999 9.4802-34.108 11.144-20.242 2.7811-38.61-2.3382-56.152-11.963-17.044-9.3517-35.255-14.006-54.788-13.131-16.845 0.75464-32.433 5.6182-47.006 13.998-17.014 9.7841-35.129 13.573-54.796 11.262-14.854-1.7454-27.565-7.987-40.566-14.782-9.1528-4.7838-19.764-7.372-30.032-9.2936-17.034-3.1879-33.991-1.4489-50.259 4.8317-5.2323 2.02-10.474 4.3035-15.21 7.269-15.893 9.9534-33.306 13.667-51.7 12.601-15.422-0.89343-29.478-6.4117-42.838-14.186-6.2048-3.6108-13.269-5.7444-20.352-8.6039z"/>
<path d="m903.96 661.12c-5.0302 11.668-9.7964 23.463-15.291 34.909-1.2499 2.6036-4.8687 4.2552-7.6575 5.9048-17.604 10.412-36.854 14.035-56.91 11.83-11.781-1.295-23.006-5.2175-33.533-11.303-14.62-8.4521-30.405-13.158-47.595-13.621-16.772-0.45117-32.546 2.6879-47.702 9.5508-8.709 3.9437-17.058 8.9907-26.108 11.814-25.126 7.8389-49.235 4.5495-72.135-8.5325-13.526-7.7265-28.13-11.948-43.81-12.741-18.801-0.95148-36.437 2.7745-53.332 11.033-9.4473 4.618-18.937 10.147-29.034 12.235-22.792 4.714-45.019 2.3846-65.557-10.234-13.428-8.2506-28.125-12.579-44.143-13.111-19.498-0.64764-37.99 2.2704-54.972 12.163-9.9425 5.7919-20.15 10.774-31.677 12.209-21.378 2.6622-41.904 0.61371-60.809-10.984-13.765-8.4445-28.677-13.724-45.053-13.152-10.219 0.35712-20.404 1.6152-30.616 2.3088-1.1288 0.07666-2.9914-0.58704-3.3935-1.4372-3.864-8.1686-7.4874-16.451-11.803-26.093 10.364-2.7938 19.537-6.533 29.002-7.5482 18.375-1.9706 36.56 0.067138 52.887 9.7107 11.642 6.876 23.679 12.318 37.102 14.396 22.895 3.5435 44.862 1.0476 65.11-10.849 29.026-17.054 58.841-19.052 88.927-3.8894 12.3 6.1984 24.245 12.664 38.021 14.765 22.893 3.4908 44.792 0.90363 65.118-10.888 17.525-10.167 36.328-15.375 56.576-13.403 12.689 1.236 24.724 5.1152 35.993 11.517 13.479 7.6569 27.907 12.166 43.618 13.562 18.75 1.6655 36.266-1.9561 52.775-9.9878 11.022-5.3622 21.668-11.289 33.842-13.663 17.686-3.449 34.892-1.8466 51.508 5.127 13.194 5.5372 25.22 13.595 39.636 16.544 20.859 4.2672 41.05 2.9647 60.638-5.2249 8.0395-3.3613 15.664-7.7108 23.504-11.557 1.3177-0.64636 2.7708-1.017 4.8621-1.5168 1.1374 0.051025 1.5739 0.10394 2.0104 0.15686z"/>
<path d="m877.89 716.05c-7.6417 12.339-15.207 24.726-22.963 36.992-3.0108 4.7617-8.5298 3.4183-12.756 3.73-19.492 1.4378-37.521-3.3512-54.545-13.233-11.756-6.8242-24.82-10.174-38.53-11.75-16.089-1.8494-31.284 0.84259-46.151 6.2458-6.6565 2.4191-12.914 5.9568-19.302 9.0912-30.018 14.73-59.169 12.948-88.045-3.642-11.787-6.7723-24.836-10.165-38.556-11.689-16.067-1.7847-31.262 0.75195-46.147 6.2143-5.1023 1.8723-10.14 4.2045-14.762 7.05-16.949 10.435-35.534 13.317-54.879 11.779-12.479-0.99237-24.155-5.3196-34.949-11.76-12.529-7.4755-25.92-11.72-40.548-13.323-19.733-2.1626-38.121 1.3091-55.812 9.7777-8.1602 3.9064-15.993 8.8576-24.538 11.531-25.492 7.9765-49.914 4.769-72.94-9.0322-11.48-6.881-23.915-11.136-37.372-12.04-5.2839-0.35492-10.628-0.32343-15.827-1.1815-1.9568-0.32294-4.1604-2.3181-5.2558-4.1472-4.8287-8.0635-9.294-16.345-14.72-26.026 9.4503-0.92499 18.028-2.6101 26.558-2.394 11.732 0.29706 23.281 2.8173 34.007 7.8859 7.7503 3.6623 15.073 8.2626 22.922 11.675 9.4418 4.1049 19.452 6.0537 29.864 6.274 14.522 0.30725 28.899-0.22852 42.426-6.0896 7.4162-3.2133 14.526-7.1552 21.686-10.935 11.829-6.2444 24.67-8.84 37.754-8.8715 17.109-0.041199 33.165 4.5862 47.936 13.667 12.45 7.6543 26.167 11.672 40.852 12.156 14.822 0.48804 29.524 0.03656 43.455-5.8943 4.7119-2.006 9.5176-3.9395 13.897-6.5493 12.745-7.5943 26.343-11.681 41.209-12.706 20.1-1.3867 37.738 4.856 55.115 14.177 8.7127 4.6738 18.645 7.8996 28.407 9.6254 22.949 4.057 45.015 0.4773 65.99-10.231 9.0464-4.6183 18.503-9.0098 28.285-11.49 19.417-4.9224 38.533-2.7069 56.854 5.8248 10.626 4.9482 21.07 10.83 32.252 13.926 22.254 6.1607 44.536 4.8879 65.996-4.5184 0.43854-0.19226 0.98212-0.14465 2.0782-0.20703 0.60144 0.001953 1.0535 0.08667 1.0536 0.08667z"/>
<path d="m653.37 766.35c15.851-0.95312 29.657-6.7007 42.869-14.157 9.6201-5.4295 19.979-8.5474 30.819-10.172 21.891-3.2808 41.752 2.3224 60.715 13.184 14.144 8.1006 29.801 11.481 46.09 11.784 3.1417 0.058472 6.2853 0.008423 10.898 0.008423-3.4357 4.3289-6.029 7.764-8.7991 11.05-5.0092 5.9421-9.9667 11.945-15.313 17.573-1.2318 1.2968-4.3218 2.1658-5.9212 1.5585-10.164-3.86-20.463-7.5737-30.125-12.499-17.061-8.6979-35.109-11.869-53.863-10.513-15.633 1.1306-30.195 6.2507-43.893 14.2-10.328 5.9944-21.746 9.1806-33.73 10.754-19.903 2.613-38.014-2.2147-55.217-11.703-16.719-9.2213-34.491-13.968-53.675-13.46-16.886 0.44696-32.719 4.7469-47.235 13.177-11.053 6.4189-22.629 10.355-35.309 12.042-18.393 2.4467-35.745-0.65411-51.748-9.4362-10.95-6.0092-21.866-11.566-34.192-13.901-25.341-4.8019-49.428-1.5251-71.74 11.806-10.544 6.3002-21.803 9.8148-33.942 11.498-17.829 2.4725-34.49-0.8584-50.564-8.3638-9.3873-4.3831-19.053-8.2712-28.046-13.351-4.0581-2.2921-7.0663-6.7267-10.049-10.578-5.6555-7.3011-10.962-14.873-16.375-22.361-0.54805-0.75818-0.8356-1.7047-2.0874-4.3376 8.4157 1.3633 15.809 1.7392 22.65 3.8821 8.1201 2.5439 16.081 6.0304 23.553 10.125 20.006 10.963 41.05 14.835 63.681 12.008 13.934-1.7403 26.341-6.7963 38.413-13.638 17.016-9.6435 35.291-13.268 54.939-10.797 13.45 1.6914 25.394 6.6226 36.994 13.235 19.074 10.873 39.618 13.794 61.333 11.231 14.305-1.6885 26.82-7.2767 39.347-13.949 21.018-11.195 43.461-14.754 66.644-7.7988 8.2857 2.4858 16.177 6.4951 23.968 10.372 11.345 5.6448 23.061 9.9924 35.712 11.096 7.5527 0.65888 15.182 0.43652 23.201 0.43066z"/>
<path d="m645.03 561c17.752 0.57404 33.896-3.4731 49.115-11.564 10.818-5.751 21.866-10.604 34.171-12.804 17.205-3.0753 33.542-0.83185 49.378 5.7966 8.6647 3.6268 16.788 8.5659 25.495 12.069 15.794 6.3543 32.246 7.7807 49.186 5.6928 14.926-1.8395 28.193-7.522 41.153-14.792 9.3672-5.2543 19.573-8.7344 30.503-9.4279 1.7681-0.11218 3.5202-0.47504 6.2355-0.8562-0.51459 7.9682-0.80243 15.541-1.7051 23.041-0.13532 1.1243-3.1119 2.6342-4.8393 2.7247-14.279 0.74902-27.796 4.3248-40.128 11.44-9.2572 5.341-18.777 9.8717-29.224 11.916-22.336 4.3705-43.621 1.7344-63.701-9.7722-14.66-8.4007-30.443-13.15-47.61-13.597-16.907-0.43976-32.868 2.652-48.15 9.7016-8.6803 4.0042-17.046 9.0499-26.108 11.797-24.96 7.5673-48.943 4.352-71.688-8.6222-13.531-7.7181-28.131-11.99-43.806-12.808-18.792-0.98077-36.435 2.7122-53.328 10.989-9.4407 4.6253-18.937 10.1-29.033 12.229-22.792 4.8057-45.042 2.4802-65.546-10.139-13.455-8.2811-28.167-12.536-44.128-13.132-18.943-0.70636-37.051 1.8808-53.653 11.375-10.41 5.9526-20.938 11.374-32.992 12.916-21.384 2.7366-41.916 0.70831-60.809-10.854-13.937-8.5287-28.98-13.012-45.517-13.48-18.81-0.53186-36.564 2.4494-53.145 11.554-4.7086 2.5853-9.4744 5.0663-14.819 7.9178-0.88363-7.1003-1.5951-12.981-2.3561-18.855-0.31619-2.4406 0.38908-3.5833 2.9737-4.681 8.469-3.5971 16.717-7.7235 24.993-11.763 9.8697-4.8171 20.087-7.9175 31.123-9.2292 18.053-2.1457 34.76 1.3348 50.885 9.1819 9.0084 4.3837 17.825 9.6533 27.34 12.405 22.028 6.3707 44.184 5.658 65.533-3.4138 10.144-4.3104 19.55-10.575 29.923-14.088 26.354-8.925 51.639-5.7028 75.556 8.8665 12.6 7.6755 26.527 11.568 41.317 12.275 16.578 0.79211 32.749-0.85364 47.948-8.0646 5.8191-2.7609 11.448-5.9215 17.182-8.8634 12.632-6.4807 26.29-9.2689 40.236-8.8596 12.348 0.36243 24.533 2.9003 35.807 8.6716 12.493 6.3956 24.825 13.334 38.993 15.459 5.5403 0.83099 11.163 1.1132 17.239 1.6454z"/>
<path d="m209 796.83c10.4 5.4949 21.197 9.8723 32.914 11.634 22.886 3.4406 44.832 0.97333 65.091-10.934 29.008-17.05 58.842-19.017 88.906-3.8148 12.293 6.2159 24.249 12.663 38.017 14.745 22.88 3.4613 44.785 0.89819 65.098-10.922 17.511-10.19 36.305-15.395 56.556-13.386 12.685 1.2587 24.718 5.1185 35.984 11.519 13.475 7.6555 27.903 12.15 43.605 13.565 18.757 1.6898 36.257-2.0402 52.774-9.9914 11.038-5.3135 21.661-11.302 33.838-13.645 17.668-3.3988 34.946-2.1283 51.48 5.1302 11.866 5.2089 23.467 11.019 35.955 16.924-6.9126 6.4352-13.855 13.013-20.992 19.372-0.75006 0.66846-2.8931 0.52588-3.9719-0.038818-17.639-9.2316-36.626-11.357-56.006-9.8253-13.401 1.0589-26.146 5.2152-37.939 11.972-13.526 7.7495-27.855 12.49-43.688 12.982-18.447 0.5733-35.006-4.4539-51.143-13.133-30.806-16.57-62.462-16.518-93.867-1.6401-9.995 4.7348-19.337 11.004-30.395 12.979-23.157 4.1354-45.347 2.1787-66.037-10.461-13.291-8.119-27.819-12.754-43.671-12.934-14.491-0.16437-28.896 0.00409-42.413 6.0264-7.2332 3.2225-14.224 7.0006-21.255 10.661-12.502 6.5099-25.841 9.6805-39.772 8.066-4.2048-0.48724-8.4808-4.0854-11.874-7.1884-12.863-11.762-25.377-23.906-38.052-36.449 0.26529-0.76581 0.56166-0.98987 0.858-1.2139z"/>
<path d="m604.38 844.71c31.447 11.761 61.466 9.9212 90.549-6.5903 11.75-6.671 24.472-10.357 38.153-11.282 13.794-0.93243 26.86 1.22 39.602 6.2032 1.0735 0.4198 2.1319 0.90149 3.136 1.4639 0.3963 0.22192 0.625 0.74323 1.5607 1.9245-4.3209 3.4648-8.5616 6.999-12.946 10.344-4.5891 3.5013-9.2272 6.9556-14.032 10.148-1.6865 1.1205-3.9384 2.0033-5.9177 1.9755-20.664-0.29004-39.907 4.5943-57.92 14.794-15.208 8.611-31.722 12.339-49.159 11.247-14.228-0.89172-27.574-5.1731-39.921-12.248-12.665-7.2567-26.149-11.229-40.682-12.877-15.886-1.8019-30.931 0.70294-45.653 6.1394-5.0987 1.8828-10.139 4.1924-14.772 7.0184-16.959 10.344-35.498 13.371-54.87 11.898-12.864-0.97821-24.843-5.4905-35.869-12.105-11.975-7.1847-24.774-11.228-38.637-12.927-19.647-2.4077-38.164 0.79901-55.931 9.1641-1.6357 0.77008-3.0197 2.231-4.7067 2.6958-2.0922 0.57648-4.9614 1.402-6.4861 0.46985-9.7002-5.9304-19.124-12.312-28.621-18.573-0.20111-0.13263-0.18033-0.60181-0.34338-1.2172 4.9298-1.12 10.005-1.7754 14.715-3.4548 7.9066-2.819 15.953-5.6133 23.268-9.6392 12.043-6.6276 24.371-11.167 38.239-12.505 15.97-1.5409 30.896 1.3764 45.3 7.5764 9.0706 3.9044 17.334 10.068 26.663 12.917 28.753 8.7815 56.702 6.9249 83.197-8.7767 11.618-6.8854 24.4-10.475 38.044-11.634 20.642-1.7537 39.08 4.007 56.511 14.37 2.2533 1.3395 4.7861 2.2091 7.5272 3.4814z"/>
<path d="m599.01 916c-18.455-10.7-38.053-15.258-58.882-13.923-15.871 1.0169-30.766 5.6887-44.524 13.816-15.924 9.4067-32.733 13.747-51.261 9.3897-10.092-2.3734-20.387-3.8911-30.464-6.3224-3.9004-0.9411-7.6076-3.0683-11.129-5.1235-12.526-7.3093-26.159-10.392-40.424-12.065-5.7191-0.67078-11.314-3.4097-16.685-5.83-10.802-4.8679-21.411-10.163-32.1-15.282-0.054596-0.70026-0.10916-1.4006-0.16373-2.1009 7.4782-2.5154 14.804-5.7133 22.463-7.4191 23.464-5.2263 45.49-1.299 66.167 11.179 13.37 8.0686 28.091 12.056 43.773 12.725 21.118 0.90167 40.273-4.5155 58.715-14.931 16.057-9.0684 33.723-12.828 52.552-10.294 13.508 1.8178 25.853 6.0344 37.6 12.89 10.935 6.3812 23.029 9.6474 35.612 11.353 24.497 3.321 46.587-2.8609 67.931-14.779 8.4294-4.7071 18.617-6.272 28.021-9.2124 0.5058-0.15814 1.1723 0.19757 2.8784 0.53351-5.3221 3.1494-9.7177 5.9022-14.25 8.4081-32.842 18.159-67.58 31.535-104.03 40.28-3.3646 0.80713-7.6037-2.0311-11.795-3.2932z"/>
<path d="m409.72 500.33c-19.681-9.6292-27.816-33.618-18.339-52.999 9.8802-20.207 32.381-28.216 51.266-19.578 19.951 9.1258 30.107 33.628 20.928 53.248-9.6009 20.521-34.582 30.483-53.855 19.329z"/>
<path d="m546.69 929.97c-18.316 0.017029-36.162 0.017029-53.683 0.017029 18.287-20.15 71.146-24.165 98.104-6.2622-7.4628 1.1965-13.93 2.3383-20.43 3.2486-7.826 1.0959-15.68 1.9952-23.992 2.9966z"/>
<path d="m208.83 796.59c-0.1327 0.466-0.42908 0.69006-0.86255 1.1598-1.2051-0.69354-2.2731-1.6328-3.3411-2.5719 0.34168-0.40668 0.68335-0.81335 1.025-1.22 1.005 0.79675 2.01 1.5934 3.1787 2.6321z" fill="#009"/>
<path d="m877.92 715.94c-0.023621 0.11047-0.47571 0.025757-0.69592-0.040466 0.093018-0.067505 0.40631-0.068786 0.69592 0.040466z" fill="#009"/>
<path d="m903.85 660.98c-0.32721 0.084412-0.76373 0.031494-1.5242-0.083557 0.25568-0.059387 0.83533-0.05658 1.5242 0.083557z" fill="#009"/>
<path d="m711 410.12c0.008118-11.682 2.4618-14.117 13.759-14.121 13.492-0.003723 26.985-0.10623 40.476 0.026459 15.863 0.15601 29.579 5.9489 41.545 16.23 18.616 15.995 25.286 36.734 23.058 60.442-1.8265 19.44-12.203 34.275-27.823 45.537-1.1418 0.82324-3.5143 0.89111-4.8804 0.30231-12.08-5.2065-24.062-10.641-35.618-15.805 1.5987-0.2283 4.2887-0.37326 6.8542-1.0154 30.12-7.538 38.966-42.109 22.459-64.468-8.2006-11.108-19.394-15.961-32.871-16.234-4.9849-0.10116-9.9736-0.016357-15.784-0.016357v80.22c-10.62 1.0797-20.418 2.0758-31.175 3.1695v-94.268z" fill="#009"/>
<path d="m294.63 521.17c-11.082 4.5611-22.271 7.2744-34.031 6.8134-17.177-0.67352-33.116-5.5311-47.669-14.687-1.0634-0.66901-1.8447-2.6439-1.8486-4.0143-0.099823-34.971-0.11624-69.942-0.043717-104.91 0.013352-6.4369 2.0776-8.3093 8.3652-8.3613 4.496-0.037201 8.9925-0.022888 13.489-0.004914 7.3704 0.02945 8.0999 0.73492 8.1014 7.8821 0.006057 28.976 0.002792 57.952 0.002975 86.928 1.5e-5 2.1324 0 4.2647 0 6.8868 2.4326 0.1152 4.3668 0.28274 6.3013 0.28619 13.489 0.024139 26.978-0.007538 40.466 0.027038 4.8811 0.012543 7.0506 1.9596 7.1737 6.7892 0.13559 5.3208-0.068054 10.65-0.30808 16.367z" fill="#009"/>
<path d="m684 414.02c-1.22e-4 33.447-0.092712 66.398 0.11554 99.347 0.026245 4.1559-1.3951 6.4634-4.9081 8.0167-8.0719 3.569-16.406 5.8226-25.919 5.5823-0.10632-2.2607-0.27539-4.1883-0.27612-6.116-0.015564-38.775-0.015991-77.549-0.008057-116.32 0.001648-7.9444 0.58643-8.5154 8.454-8.5202 5.6581-0.003448 11.317 0.065003 16.974-0.020141 2.6833-0.040345 4.5253 0.54556 4.6646 3.7168 0.2027 4.6112 0.59308 9.2143 0.90338 14.318z" fill="#009"/>
<path d="m622.09 502c-3.1373 5.8162-6.0677 11.315-9.3118 16.622-1.4501 2.3724-3.6779 2.9197-6.4875 1.572-8.024-3.8488-16.139-7.5093-24.257-11.159-2.519-1.1324-5.1608-1.9918-7.4551-2.8653 4.7209-3.1257 9.7115-5.8225 13.956-9.4038 4.614-3.8934 6.4372-9.502 6.4465-15.532 0.039429-25.329 0.00946-50.659 0.02301-75.989 0.004212-7.8366 1.4388-9.243 9.2869-9.2475 5.4991-0.003174 10.999 0.075745 16.497-0.015411 2.9312-0.048584 4.2279 1.1039 4.2233 4.1208-0.045715 29.662 0.083435 59.325-0.15094 88.986-0.03302 4.1785-1.752 8.3437-2.7698 12.91z" fill="#009"/>
<path d="m308 446c1.83e-4 -12.821-0.010345-25.141 0.003967-37.462 0.011139-9.5918 2.8876-12.535 12.193-12.538 3.1634-9.46e-4 6.3271-0.024964 9.4901 0.007782 5.214 0.053985 9.242 3.6515 9.2563 8.8551 0.086914 31.634 0.076232 63.268-0.078186 94.901-0.006592 1.3525-1.4826 3.4997-2.7285 3.9154-8.7182 2.9098-17.555 5.465-26.361 8.1093-0.28085 0.084351-0.64069-0.094116-1.7759-0.29083v-65.498z" fill="#009"/>
<path d="m543 421c0 17.808 0.3288 35.125-0.11884 52.422-0.28534 11.027 1.9032 20.586 12.438 28.241-3.0087 0.15888-4.7056 0.17801-6.3869 0.34906-8.8422 0.89972-17.697 1.7062-26.511 2.8351-3.0408 0.38943-4.9387-0.46805-5.5535-3.3304-1.7202-8.009-4.4406-16.027-4.645-24.096-0.61496-24.283-0.23776-48.591-0.21167-72.889 0.007263-6.806 1.7567-8.5152 8.4792-8.5287 5.6584-0.011414 11.326 0.20026 16.972-0.065674 4.2317-0.19934 5.6146 1.7022 5.5557 5.5906-0.095764 6.3227-0.021545 12.648-0.019104 19.472z" fill="#009"/>
</svg>
